<svg version="1.1" viewBox="0.0 0.0 960.0 240.0" fill="none" stroke="none" stroke-linecap="square" stroke-miterlimit="10" xmlns:xlink="http://www.w3.org/1999/xlink" xmlns="http://www.w3.org/2000/svg"><clipPath id="p.0"><path d="m0 0l960.0 0l0 240.0l-960.0 0l0 -240.0z" clip-rule="nonzero"/></clipPath><g clip-path="url(#p.0)"><path fill="#000000" fill-opacity="0.0" d="m0 0l960.0 0l0 240.0l-960.0 0z" fill-rule="evenodd"/><path fill="#000000" fill-opacity="0.0" d="m0 130.13649l960.0 0l0 114.74016l-960.0 0z" fill-rule="evenodd"/><path fill="#012b5d" d="m193.41257 214.65648l0 -55.0625l22.421875 0q8.796875 0 15.4375 3.5q6.65625 3.5 10.34375 9.71875q3.703125 6.21875 3.703125 14.3125q0 8.109375 -3.703125 14.328125q-3.6875 6.203125 -10.34375 9.703125q-6.640625 3.5 -15.4375 3.5l-22.421875 0zm5.8125 -5.03125l16.28125 0q7.328125 0 12.703125 -2.875q5.390625 -2.875 8.375 -7.9375q3.0 -5.078125 3.0 -11.6875q0 -6.6875 -3.0 -11.71875q-2.984375 -5.03125 -8.375 -7.90625q-5.375 -2.875 -12.703125 -2.875l-16.28125 0l0 45.0z" fill-rule="nonzero"/><path fill="#012b5d" d="m267.11453 214.65648l0 -55.0625l5.8125 0l0 55.0625l-5.8125 0z" fill-rule="nonzero"/><path fill="#012b5d" d="m323.74127 215.12523q-6.28125 0 -11.59375 -2.078125q-5.3125 -2.09375 -9.203125 -5.859375q-3.890625 -3.78125 -6.0625 -8.890625q-2.15625 -5.109375 -2.15625 -11.171875q0 -6.0625 2.15625 -11.171875q2.171875 -5.109375 6.09375 -8.875q3.9375 -3.78125 9.25 -5.859375q5.3125 -2.09375 11.59375 -2.09375q6.296875 0 11.53125 1.96875q5.234375 1.96875 8.921875 5.96875l-3.609375 3.703125q-3.46875 -3.453125 -7.640625 -4.953125q-4.15625 -1.5 -8.96875 -1.5q-5.109375 0 -9.390625 1.703125q-4.28125 1.6875 -7.46875 4.796875q-3.1875 3.09375 -4.96875 7.234375q-1.765625 4.125 -1.765625 9.078125q0 4.875 1.765625 9.046875q1.78125 4.171875 4.96875 7.28125q3.1875 3.09375 7.46875 4.796875q4.28125 1.6875 9.3125 1.6875q4.71875 0 8.921875 -1.40625q4.21875 -1.421875 7.765625 -4.8125l3.296875 4.40625q-3.9375 3.46875 -9.203125 5.234375q-5.265625 1.765625 -11.015625 1.765625zm14.640625 -7.703125l0 -20.296875l5.578125 0l0 21.0l-5.578125 -0.703125z" fill-rule="nonzero"/><path fill="#012b5d" d="m369.13385 214.65648l0 -55.0625l5.8125 0l0 55.0625l-5.8125 0z" fill-rule="nonzero"/><path fill="#012b5d" d="m412.30743 214.65648l0 -50.03125l-19.34375 0l0 -5.03125l44.515625 0l0 5.03125l-19.34375 0l0 50.03125l-5.828125 0z" fill-rule="nonzero"/><path fill="#012b5d" d="m446.68805 214.65648l25.171875 -55.0625l5.734375 0l25.171875 55.0625l-6.125 0l-23.125 -51.671875l2.359375 0l-23.125 51.671875l-6.0625 0zm9.90625 -14.703125l1.734375 -4.71875l32.015625 0l1.734375 4.71875l-35.484375 0z" fill-rule="nonzero"/><path fill="#012b5d" d="m520.629 214.65648l0 -55.0625l5.8125 0l0 50.03125l30.84375 0l0 5.03125l-36.65625 0z" fill-rule="nonzero"/><path fill="#012b5d" d="m605.0293 214.65648l0 -55.0625l5.8125 0l0 50.03125l30.84375 0l0 5.03125l-36.65625 0z" fill-rule="nonzero"/><path fill="#012b5d" d="m651.2772 214.65648l25.171875 -55.0625l5.734375 0l25.171875 55.0625l-6.125 0l-23.125 -51.671875l2.359375 0l-23.125 51.671875l-6.0625 0zm9.90625 -14.703125l1.734375 -4.71875l32.015625 0l1.734375 4.71875l-35.484375 0z" fill-rule="nonzero"/><path fill="#012b5d" d="m725.21814 214.65648l0 -55.0625l23.75 0q9.203125 0 14.28125 3.703125q5.078125 3.6875 5.078125 10.453125q0 4.484375 -2.09375 7.5625q-2.078125 3.0625 -5.65625 4.640625q-3.578125 1.5625 -7.828125 1.5625l1.328125 -1.890625q5.28125 0 9.09375 1.625q3.8125 1.609375 5.9375 4.796875q2.125 3.1875 2.125 7.90625q0 7.0 -5.15625 10.859375q-5.15625 3.84375 -15.53125 3.84375l-25.328125 0zm5.8125 -4.796875l19.4375 0q7.234375 0 11.078125 -2.46875q3.859375 -2.484375 3.859375 -7.921875q0 -5.34375 -3.859375 -7.8125q-3.84375 -2.484375 -11.078125 -2.484375l-20.0625 0l0 -4.796875l18.171875 0q6.609375 0 10.265625 -2.515625q3.65625 -2.515625 3.65625 -7.46875q0 -5.046875 -3.65625 -7.515625q-3.65625 -2.484375 -10.265625 -2.484375l-17.546875 0l0 45.46875z" fill-rule="nonzero"/><path fill="#000000" fill-opacity="0.0" d="m-0.2519685 -4.8766403l960.0 0l0 180.97638l-960.0 0z" fill-rule="evenodd"/><path fill="#012b5d" d="m17.163986 37.732735q3.328125 0.125 9.0 0.265625q5.671875 0.125 11.265625 0.125q6.40625 0 12.40625 -0.125q6.0 -0.140625 8.53125 -0.140625q12.390625 0 20.59375 2.734375q8.203125 2.734375 12.265625 7.9375q4.0625 5.203125 4.0625 12.53125q0 4.53125 -1.859375 9.140625q-1.859375 4.59375 -6.328125 8.53125q-4.46875 3.921875 -12.203125 6.265625q-7.734375 2.328125 -19.46875 2.328125l-12.796875 0l0 -2.671875l11.46875 0q7.859375 0 11.921875 -3.0q4.078125 -3.0 5.609375 -8.0q1.53125 -5.0 1.53125 -11.125q0 -10.53125 -3.734375 -16.328125q-3.734375 -5.8125 -12.796875 -5.8125q-5.203125 0 -6.734375 2.265625q-1.53125 2.265625 -1.53125 9.203125l0 66.140625q0 4.796875 0.734375 7.203125q0.734375 2.390625 2.859375 3.1874924q2.140625 0.796875 6.40625 1.0625l0 2.671875q-3.609375 -0.265625 -9.078125 -0.328125q-5.453125 -0.078125 -11.0625 -0.078125q-6.390625 0 -12.0625 0.078125q-5.671875 0.0625 -9.0 0.328125l0 -2.671875q4.265625 -0.265625 6.390625 -1.0625q2.140625 -0.7968674 2.875 -3.1874924q0.734375 -2.40625 0.734375 -7.203125l0 -66.140625q0 -4.9375 -0.734375 -7.265625q-0.734375 -2.328125 -2.9375 -3.1875q-2.1875 -0.875 -6.328125 -1.015625l0 -2.65625zm25.203125 47.328125q5.734375 0.125 9.921875 0.53125q4.203125 0.40625 7.40625 0.734375q3.203125 0.328125 5.734375 0.46875q12.140625 1.0625 17.9375 5.203125q5.796875 4.125 7.53125 12.390625l3.0625 13.734375q1.203125 5.328125 2.53125 7.46875q1.34375 2.125 3.875 2.125q1.734375 -0.125 2.859375 -0.859375q1.140625 -0.734375 2.46875 -2.203125l1.859375 1.609375q-3.59375 4.1249924 -7.734375 5.9218674q-4.125 1.796875 -9.984375 1.796875q-7.203125 0 -11.875 -3.0625q-4.65625 -3.0624924 -6.125 -11.328117l-2.40625 -13.328125q-0.9375 -5.609375 -2.265625 -9.796875q-1.328125 -4.203125 -3.671875 -6.671875q-2.328125 -2.46875 -6.46875 -2.46875l-14.390625 0l-0.265625 -2.265625zm100.12248 -23.734375q11.734375 0 18.40625 6.9375q6.671875 6.921875 6.671875 22.65625l-43.875 0l-0.265625 -2.53125l27.328125 0q0.140625 -6.53125 -0.796875 -12.0625q-0.9375 -5.53125 -2.9375 -8.859375q-2.0 -3.34375 -5.328125 -3.34375q-4.671875 0 -7.9375 5.875q-3.265625 5.859375 -3.921875 19.453125l0.390625 0.8125q-0.125 1.59375 -0.203125 3.328125q-0.0625 1.734375 -0.0625 3.59375q0 9.203125 2.59375 14.9375q2.609375 5.734375 6.609375 8.34375q4.0 2.59375 8.125 2.59375q2.8125 0 5.8125 -0.859375q3.0 -0.875 6.0625 -3.203125q3.0625 -2.34375 5.734375 -6.609375l2.390625 0.796875q-1.59375 5.078125 -5.0625 9.875q-3.46875 4.796875 -8.796875 7.8593674q-5.328125 3.0625 -12.796875 3.0625q-9.0625 0 -16.0 -3.859375q-6.9375 -3.8593674 -10.875 -11.718742q-3.921875 -7.875 -3.921875 -20.015625q0 -12.390625 4.1875 -20.65625q4.203125 -8.28125 11.59375 -12.34375q7.40625 -4.0625 16.875 -4.0625zm81.60054 0q5.59375 0 9.125 1.40625q3.546875 1.390625 5.546875 3.796875q2.125 2.53125 3.125 6.53125q1.0 4.0 1.0 10.796875l0 35.859375q0 5.609375 1.9375 7.609375q1.9375 1.9999924 6.59375 1.9999924l0 2.796875q-2.53125 -0.140625 -7.59375 -0.328125q-5.0625 -0.203125 -10.0 -0.203125q-5.0625 0 -9.9375 0.203125q-4.859375 0.1875 -7.390625 0.328125l0 -2.796875q4.0 0 5.59375 -1.9999924q1.59375 -2.0 1.59375 -7.609375l0 -41.453125q0 -3.34375 -0.671875 -5.796875q-0.65625 -2.46875 -2.390625 -3.875q-1.734375 -1.40625 -5.203125 -1.40625q-3.59375 0 -6.59375 2.0q-3.0 2.0 -4.796875 5.546875q-1.796875 3.53125 -1.796875 7.921875l0 37.0625q0 5.609375 1.65625 7.609375q1.671875 1.9999924 5.53125 1.9999924l0 2.796875q-2.390625 -0.140625 -7.0 -0.328125q-4.59375 -0.203125 -9.53125 -0.203125q-5.0625 0 -10.40625 0.203125q-5.328125 0.1875 -7.984375 0.328125l0 -2.796875q4.65625 0 6.59375 -1.9999924q1.9375 -2.0 1.9375 -7.609375l0 -41.984375q0 -6.0 -1.796875 -8.859375q-1.796875 -2.875 -6.734375 -2.875l0 -2.8125q4.265625 0.40625 8.265625 0.40625q5.59375 0 10.453125 -0.46875q4.875 -0.46875 9.015625 -1.390625l0 12.0q3.328125 -6.8125 9.0625 -9.609375q5.734375 -2.796875 12.796875 -2.796875zm98.660385 0.40625l0 55.859375q0 6.0 1.859375 8.875q1.875 2.8593674 6.671875 2.8593674l0 2.796875q-4.125 -0.40625 -8.265625 -0.40625q-5.59375 0 -10.390625 0.40625q-4.796875 0.40625 -9.078125 1.46875l0 -11.999992q-3.1875 6.6718674 -8.859375 9.531242q-5.671875 2.859375 -12.59375 2.859375q-5.609375 0 -9.078125 -1.46875q-3.453125 -1.453125 -5.453125 -3.71875q-2.265625 -2.5312424 -3.203125 -6.6562424q-0.9375 -4.140625 -0.9375 -10.6875l0 -33.71875q0 -6.0 -1.796875 -8.859375q-1.796875 -2.875 -6.734375 -2.875l0 -2.8125q4.265625 0.40625 8.265625 0.40625q5.59375 0 10.453125 -0.46875q4.875 -0.46875 9.015625 -1.390625l0 55.1875q0 3.34375 0.59375 5.875q0.609375 2.53125 2.328125 3.9375q1.734375 1.3906174 5.078125 1.3906174q3.59375 0 6.453125 -1.9999924q2.875 -2.0 4.671875 -5.53125q1.796875 -3.53125 1.796875 -7.9375l0 -34.921875q0 -6.0 -1.796875 -8.859375q-1.796875 -2.875 -6.734375 -2.875l0 -2.8125q4.265625 0.40625 8.265625 0.40625q5.609375 0 10.46875 -0.46875q4.875 -0.46875 9.0 -1.390625zm80.12799 -25.734375q7.875 0 12.140625 1.671875q4.265625 1.65625 7.328125 3.515625q1.609375 0.9375 2.609375 1.40625q1.0 0.46875 1.921875 0.46875q1.34375 0 1.9375 -1.46875q0.59375 -1.46875 1.0 -4.390625l3.0625 0q-0.125 2.53125 -0.328125 6.0625q-0.203125 3.53125 -0.265625 9.265625q-0.0625 5.734375 -0.0625 15.0625l-3.078125 0q-0.53125 -6.9375 -3.203125 -13.46875q-2.65625 -6.53125 -7.53125 -10.734375q-4.859375 -4.203125 -11.921875 -4.203125q-6.40625 0 -10.546875 3.609375q-4.125 3.59375 -4.125 10.0q0 5.328125 2.65625 9.140625q2.671875 3.796875 7.796875 7.390625q5.140625 3.59375 12.484375 8.671875q6.390625 4.125 11.453125 8.265625q5.078125 4.125 8.140625 9.328125q3.0625 5.203125 3.0625 12.40625q0 8.796875 -4.59375 14.53125q-4.59375 5.7343674 -12.0625 8.593742q-7.46875 2.859375 -16.40625 2.859375q-8.265625 0 -13.203125 -1.59375q-4.921875 -1.59375 -8.265625 -3.328125q-2.921875 -1.8749924 -4.53125 -1.8749924q-1.328125 0 -1.9375 1.4687424q-0.59375 1.46875 -0.984375 4.40625l-3.078125 0q0.265625 -3.203125 0.328125 -7.4687424q0.078125 -4.265625 0.140625 -11.125q0.0625 -6.875 0.0625 -17.40625l3.078125 0q0.53125 8.796875 3.0 16.46875q2.46875 7.65625 7.59375 12.328125q5.140625 4.6718674 13.671875 4.6718674q4.65625 0 8.328125 -1.671875q3.671875 -1.6718674 5.9375 -4.9999924q2.265625 -3.328125 2.265625 -8.265625q0 -5.59375 -2.609375 -9.734375q-2.59375 -4.140625 -7.0625 -7.734375q-4.46875 -3.59375 -10.328125 -7.328125q-6.265625 -4.140625 -11.734375 -8.265625q-5.46875 -4.140625 -8.734375 -9.46875q-3.265625 -5.328125 -3.265625 -12.671875q0 -8.390625 4.203125 -13.796875q4.203125 -5.40625 11.0625 -8.0q6.859375 -2.59375 14.59375 -2.59375zm77.59802 25.328125q9.734375 0 17.0625 3.609375q7.34375 3.59375 11.46875 11.59375q4.1406555 8.0 4.1406555 21.1875q0 13.203125 -4.1406555 21.140625q-4.125 7.9375 -11.46875 11.531242q-7.328125 3.59375 -17.0625 3.59375q-9.46875 0 -16.875 -3.59375q-7.390625 -3.5937424 -11.59375 -11.531242q-4.1875 -7.9375 -4.1875 -21.140625q0 -13.1875 4.1875 -21.1875q4.203125 -8.0 11.59375 -11.59375q7.40625 -3.609375 16.875 -3.609375zm0 2.671875q-5.328125 0 -8.9375 7.9375q-3.59375 7.921875 -3.59375 25.78125q0 17.875 3.59375 25.75q3.609375 7.8593674 8.9375 7.8593674q5.46875 0 9.0 -7.8593674q3.53125 -7.875 3.53125 -25.75q0 -17.859375 -3.53125 -25.78125q-3.53125 -7.9375 -9.0 -7.9375zm66.8096 -36.265625l0 91.984375q0 5.609375 1.921875 7.609375q1.9375 1.9999924 6.609375 1.9999924l0 2.796875q-2.53125 -0.140625 -7.609375 -0.328125q-5.0625 -0.203125 -10.265625 -0.203125q-5.203125 0 -10.46875 0.203125q-5.265625 0.1875 -7.921875 0.328125l0 -2.796875q4.65625 0 6.59375 -1.9999924q1.9375 -2.0 1.9375 -7.609375l0 -75.984375q0 -6.0 -1.8125 -8.859375q-1.796875 -2.875 -6.71875 -2.875l0 -2.796875q4.265625 0.390625 8.265625 0.390625q5.46875 0 10.390625 -0.46875q4.9375 -0.46875 9.078125 -1.390625zm80.65259 34.0l0 55.859375q0 6.0 1.859375 8.875q1.875 2.8593674 6.671875 2.8593674l0 2.796875q-4.125 -0.40625 -8.265625 -0.40625q-5.59375 0 -10.390625 0.40625q-4.796875 0.40625 -9.078125 1.46875l0 -11.999992q-3.1875 6.6718674 -8.859375 9.531242q-5.671875 2.859375 -12.59375 2.859375q-5.609375 0 -9.078125 -1.46875q-3.453125 -1.453125 -5.453125 -3.71875q-2.265625 -2.5312424 -3.203125 -6.6562424q-0.9375 -4.140625 -0.9375 -10.6875l0 -33.71875q0 -6.0 -1.796875 -8.859375q-1.796875 -2.875 -6.734375 -2.875l0 -2.8125q4.265625 0.40625 8.265625 0.40625q5.59375 0 10.453125 -0.46875q4.875 -0.46875 9.015625 -1.390625l0 55.1875q0 3.34375 0.59375 5.875q0.609375 2.53125 2.328125 3.9375q1.734375 1.3906174 5.078125 1.3906174q3.59375 0 6.453125 -1.9999924q2.875 -2.0 4.671875 -5.53125q1.796875 -3.53125 1.796875 -7.9375l0 -34.921875q0 -6.0 -1.796875 -8.859375q-1.796875 -2.875 -6.734375 -2.875l0 -2.8125q4.265625 0.40625 8.265625 0.40625q5.609375 0 10.46875 -0.46875q4.875 -0.46875 9.0 -1.390625zm41.46875 -20.40625l0 21.859375l15.734375 0l0 2.671875l-15.734375 0l0 53.859375q0 4.0 1.46875 5.671875q1.46875 1.671875 4.390625 1.671875q2.40625 0 4.796875 -1.796875q2.40625 -1.8125 4.28125 -6.203125l2.265625 1.203125q-2.140625 6.0 -6.46875 9.859367q-4.328125 3.859375 -11.796875 3.859375q-4.40625 0 -7.75 -1.140625q-3.328125 -1.125 -5.59375 -3.390625q-2.921875 -2.9218674 -3.859375 -7.2499924q-0.9375 -4.34375 -0.9375 -11.28125l0 -45.0625l-11.203125 0l0 -2.671875l11.203125 0l0 -17.59375q5.609375 0 10.328125 -1.0q4.734375 -1.0 8.875 -3.265625zm37.197144 -12.53125q5.59375 0 8.859375 2.734375q3.265625 2.734375 3.265625 7.53125q0 4.796875 -3.265625 7.53125q-3.265625 2.734375 -8.859375 2.734375q-5.609375 0 -8.875 -2.734375q-3.265625 -2.734375 -3.265625 -7.53125q0 -4.796875 3.265625 -7.53125q3.265625 -2.734375 8.875 -2.734375zm10.40625 32.9375l0 57.984375q0 5.609375 1.921875 7.609375q1.9375 1.9999924 6.609375 1.9999924l0 2.796875q-2.40625 -0.140625 -7.46875 -0.328125q-5.0625 -0.203125 -10.265625 -0.203125q-5.203125 0 -10.546875 0.203125q-5.328125 0.1875 -7.984375 0.328125l0 -2.796875q4.65625 0 6.59375 -1.9999924q1.9375 -2.0 1.9375 -7.609375l0 -41.984375q0 -6.0 -1.796875 -8.859375q-1.796875 -2.875 -6.734375 -2.875l0 -2.8125q4.265625 0.40625 8.265625 0.40625q5.59375 0 10.453125 -0.46875q4.875 -0.46875 9.015625 -1.390625zm48.654602 -0.40625q9.734375 0 17.0625 3.609375q7.34375 3.59375 11.46875 11.59375q4.140625 8.0 4.140625 21.1875q0 13.203125 -4.140625 21.140625q-4.125 7.9375 -11.46875 11.531242q-7.328125 3.59375 -17.0625 3.59375q-9.46875 0 -16.875 -3.59375q-7.390625 -3.5937424 -11.59375 -11.531242q-4.1875 -7.9375 -4.1875 -21.140625q0 -13.1875 4.1875 -21.1875q4.203125 -8.0 11.59375 -11.59375q7.40625 -3.609375 16.875 -3.609375zm0 2.671875q-5.328125 0 -8.9375 7.9375q-3.59375 7.921875 -3.59375 25.78125q0 17.875 3.59375 25.75q3.609375 7.8593674 8.9375 7.8593674q5.46875 0 9.0 -7.8593674q3.53125 -7.875 3.53125 -25.75q0 -17.859375 -3.53125 -25.78125q-3.53125 -7.9375 -9.0 -7.9375zm90.53357 -2.671875q5.59375 0 9.125 1.40625q3.546875 1.390625 5.546875 3.796875q2.125 2.53125 3.125 6.53125q1.0 4.0 1.0 10.796875l0 35.859375q0 5.609375 1.9375 7.609375q1.9375 1.9999924 6.59375 1.9999924l0 2.796875q-2.53125 -0.140625 -7.59375 -0.328125q-5.0625 -0.203125 -10.0 -0.203125q-5.0625 0 -9.9375 0.203125q-4.859375 0.1875 -7.390625 0.328125l0 -2.796875q4.0 0 5.59375 -1.9999924q1.59375 -2.0 1.59375 -7.609375l0 -41.453125q0 -3.34375 -0.671875 -5.796875q-0.65625 -2.46875 -2.390625 -3.875q-1.734375 -1.40625 -5.203125 -1.40625q-3.59375 0 -6.59375 2.0q-3.0 2.0 -4.796875 5.546875q-1.796875 3.53125 -1.796875 7.921875l0 37.0625q0 5.609375 1.65625 7.609375q1.671875 1.9999924 5.53125 1.9999924l0 2.796875q-2.390625 -0.140625 -7.0 -0.328125q-4.59375 -0.203125 -9.53125 -0.203125q-5.0625 0 -10.40625 0.203125q-5.328125 0.1875 -7.984375 0.328125l0 -2.796875q4.65625 0 6.59375 -1.9999924q1.9375 -2.0 1.9375 -7.609375l0 -41.984375q0 -6.0 -1.796875 -8.859375q-1.796875 -2.875 -6.734375 -2.875l0 -2.8125q4.265625 0.40625 8.265625 0.40625q5.59375 0 10.453125 -0.46875q4.875 -0.46875 9.015625 -1.390625l0 12.0q3.328125 -6.8125 9.0625 -9.609375q5.734375 -2.796875 12.796875 -2.796875zm58.6604 0q5.609375 0 9.796875 1.40625q4.203125 1.390625 6.078125 2.71875q4.53125 3.078125 5.59375 -3.984375l2.796875 0q-0.265625 3.71875 -0.40625 9.125q-0.125 5.40625 -0.125 14.328125l-2.796875 0q-0.671875 -4.921875 -2.546875 -9.71875q-1.859375 -4.8125 -5.390625 -7.875q-3.53125 -3.0625 -9.125 -3.0625q-3.875 0 -6.546875 2.203125q-2.65625 2.1875 -2.65625 6.328125q0 4.0 2.390625 7.0q2.40625 3.0 6.203125 5.734375q3.8125 2.734375 7.9375 5.796875q4.40625 3.328125 8.0 6.59375q3.59375 3.265625 5.734375 7.140625q2.140625 3.859375 2.140625 9.203125q0 6.0 -3.46875 10.46875q-3.46875 4.4531174 -9.140625 6.8593674q-5.65625 2.390625 -12.59375 2.390625q-4.0 0 -7.140625 -0.796875q-3.125 -0.796875 -5.390625 -2.0q-1.734375 -0.796875 -3.28125 -1.53125q-1.53125 -0.734375 -2.859375 -1.265625q-1.328125 -0.40624237 -2.328125 0.9375q-1.0 1.328125 -1.53125 3.734375l-2.796875 0q0.265625 -4.265625 0.390625 -10.390617q0.140625 -6.140625 0.140625 -16.28125l2.796875 0q0.796875 7.203125 2.921875 12.734375q2.140625 5.53125 5.796875 8.671875q3.671875 3.1249924 9.28125 3.1249924q2.265625 0 4.390625 -0.921875q2.140625 -0.9375 3.53125 -3.0624924q1.40625 -2.140625 1.40625 -5.484375q0 -5.859375 -3.796875 -9.71875q-3.796875 -3.875 -9.671875 -8.40625q-4.265625 -3.46875 -8.0625 -6.859375q-3.796875 -3.40625 -6.203125 -7.46875q-2.390625 -4.078125 -2.390625 -9.265625q0 -6.0 3.1875 -10.140625q3.203125 -4.140625 8.46875 -6.203125q5.265625 -2.0625 11.265625 -2.0625z" fill-rule="nonzero"/><path fill="#000000" fill-opacity="0.0" d="m284.0 -62.49344l47.3071 0l0 156.7559l-47.3071 0z" fill-rule="evenodd"/><path fill="#012b5d" d="m305.01562 55.869064q-2.5 0 -4.265625 -1.8125q-1.75 -1.8125 -1.75 -4.421875q0 -2.71875 1.75 -4.40625q1.765625 -1.703125 4.265625 -1.703125q2.484375 0 4.234375 1.703125q1.765625 1.6875 1.765625 4.40625q0 2.609375 -1.765625 4.421875q-1.75 1.8125 -4.234375 1.8125z" fill-rule="nonzero"/><path fill="#000000" fill-opacity="0.0" d="m256.19684 -62.49344l47.3071 0l0 156.7559l-47.3071 0z" fill-rule="evenodd"/><path fill="#012b5d" d="m277.21246 55.869064q-2.5 0 -4.265625 -1.8125q-1.75 -1.8125 -1.75 -4.421875q0 -2.71875 1.75 -4.40625q1.765625 -1.703125 4.265625 -1.703125q2.484375 0 4.234375 1.703125q1.765625 1.6875 1.765625 4.40625q0 2.609375 -1.765625 4.421875q-1.75 1.8125 -4.234375 1.8125z" fill-rule="nonzero"/></g></svg>