<svg xmlns="http://www.w3.org/2000/svg" xmlns:xlink="http://www.w3.org/1999/xlink" width="500" zoomAndPan="magnify" viewBox="0 0 375 374.999991" height="500" preserveAspectRatio="xMidYMid meet" version="1.0"><defs><clipPath id="5f1f08f70f"><path d="M 1 41.25 L 374 41.25 L 374 333.75 L 1 333.75 Z M 1 41.25 " clip-rule="nonzero"/></clipPath><clipPath id="a59de13b99"><path d="M 186.277344 111.003906 L 186.320312 113.871094 C 145.589844 114.515625 112.976562 148.183594 113.625 188.914062 C 113.941406 208.648438 121.914062 227.074219 136.09375 240.804688 C 150.265625 254.535156 168.953125 261.921875 188.671875 261.617188 C 208.398438 261.300781 226.832031 253.320312 240.566406 239.148438 C 254.296875 224.976562 261.679688 206.300781 261.367188 186.566406 C 260.722656 146.234375 227.707031 113.859375 187.515625 113.859375 C 187.121094 113.859375 186.722656 113.867188 186.320312 113.875 Z M 8.75 293.992188 L 7.007812 327.964844 L 117.34375 326.664062 L 119.085938 292.691406 Z M 3.984375 333.726562 C 3.207031 333.726562 2.460938 333.414062 1.917969 332.855469 C 1.375 332.28125 1.078125 331.511719 1.125 330.71875 L 3.164062 291.011719 C 3.238281 289.496094 4.476562 288.308594 5.992188 288.285156 L 29.097656 288.015625 C 31.011719 284.996094 34.085938 279.0625 33.582031 274.703125 C 33.179688 271.210938 26.472656 251.757812 20.566406 234.59375 C 14.566406 217.179688 8.359375 199.179688 5.972656 190.300781 C -0.0625 167.894531 31.101562 112.417969 60.796875 62.175781 C 65.347656 54.476562 69.28125 47.816406 71.773438 43.277344 C 71.863281 43.113281 71.964844 42.957031 72.078125 42.816406 L 72.109375 42.777344 L 72.125 42.761719 L 72.15625 42.722656 L 72.203125 42.671875 C 73.035156 41.769531 74.375 41.484375 75.519531 42.023438 C 85.277344 46.390625 91.496094 52.449219 94.003906 60.023438 C 99.042969 75.261719 88.632812 93.804688 78.5625 111.730469 C 75.734375 116.773438 73.03125 121.582031 70.699219 126.246094 C 74.066406 127.4375 77.105469 129.222656 79.800781 131.589844 C 96.835938 146.578125 96.027344 181.082031 95.496094 203.921875 C 95.453125 205.832031 95.40625 207.648438 95.375 209.355469 C 95.167969 221.726562 96.898438 224.828125 101.082031 232.332031 C 103.25 236.222656 105.949219 241.058594 109.21875 248.652344 C 116.535156 265.597656 110.464844 279.957031 106.113281 287.105469 L 122.070312 286.917969 C 122.878906 286.914062 123.621094 287.234375 124.175781 287.800781 C 124.722656 288.375 125.011719 289.144531 124.964844 289.9375 L 122.929688 329.644531 C 122.855469 331.152344 121.613281 332.347656 120.097656 332.363281 L 4.023438 333.726562 C 4.007812 333.726562 4 333.726562 3.984375 333.726562 Z M 35.746094 287.9375 L 99.144531 287.1875 C 102.066406 283.359375 111.65625 268.773438 103.957031 250.921875 C 100.800781 243.597656 98.175781 238.902344 96.070312 235.125 C 91.777344 227.417969 89.410156 223.167969 89.640625 209.257812 C 89.675781 207.542969 89.714844 205.710938 89.761719 203.785156 C 90.269531 182.011719 91.039062 149.117188 76.015625 135.898438 C 73.210938 133.433594 69.984375 131.769531 66.277344 130.894531 C 66.105469 130.875 65.929688 130.835938 65.757812 130.777344 C 62.847656 130.160156 59.648438 130.011719 56.136719 130.335938 L 62.308594 196.074219 C 62.457031 197.65625 61.296875 199.050781 59.714844 199.203125 C 59.625 199.210938 59.535156 199.210938 59.449219 199.210938 C 57.984375 199.210938 56.734375 198.097656 56.59375 196.609375 L 50.167969 128.105469 L 50.164062 128.0625 L 50.164062 128.042969 C 50.046875 126.5 51.175781 125.148438 52.714844 124.980469 C 57.128906 124.320312 61.230469 124.273438 65.003906 124.839844 C 67.550781 119.636719 70.601562 114.203125 73.566406 108.921875 C 83.023438 92.078125 92.800781 74.664062 88.550781 61.824219 C 86.738281 56.347656 82.460938 51.929688 75.5 48.371094 C 73.003906 52.789062 69.585938 58.566406 65.734375 65.09375 C 44.71875 100.65625 5.597656 166.855469 11.511719 188.808594 C 13.851562 197.5 20.015625 215.40625 25.988281 232.726562 C 33.964844 255.875 38.839844 270.210938 39.28125 274.046875 C 39.839844 278.878906 37.691406 284.234375 35.746094 287.9375 Z M 257.648438 326.664062 L 367.984375 327.964844 L 366.246094 293.992188 L 255.910156 292.691406 Z M 371.007812 333.726562 C 370.992188 333.726562 370.984375 333.726562 370.96875 333.726562 L 254.894531 332.363281 C 253.378906 332.347656 252.136719 331.152344 252.0625 329.644531 L 250.027344 289.9375 C 249.984375 289.144531 250.269531 288.375 250.816406 287.800781 C 251.371094 287.234375 252.128906 286.90625 252.921875 286.917969 L 268.878906 287.109375 C 264.527344 279.957031 258.457031 265.597656 265.773438 248.652344 C 269.050781 241.058594 271.746094 236.222656 273.910156 232.332031 C 278.09375 224.828125 279.824219 221.726562 279.613281 209.355469 C 279.585938 207.652344 279.539062 205.832031 279.496094 203.921875 C 278.964844 181.085938 278.160156 146.578125 295.191406 131.589844 C 297.882812 129.222656 300.921875 127.4375 304.289062 126.246094 C 301.953125 121.582031 299.257812 116.773438 296.421875 111.730469 C 286.359375 93.804688 275.949219 75.261719 280.988281 60.023438 C 283.496094 52.445312 289.722656 46.386719 299.488281 42.019531 C 300.144531 41.714844 300.859375 41.679688 301.511719 41.875 L 301.515625 41.878906 C 301.554688 41.890625 301.59375 41.902344 301.632812 41.917969 L 301.644531 41.917969 L 301.679688 41.933594 L 301.6875 41.9375 C 301.726562 41.949219 301.765625 41.964844 301.804688 41.984375 L 301.8125 41.984375 C 302.402344 42.238281 302.90625 42.683594 303.222656 43.289062 C 305.71875 47.832031 309.648438 54.480469 314.191406 62.175781 C 343.890625 112.417969 375.054688 167.894531 369.019531 190.300781 C 366.632812 199.179688 360.425781 217.179688 354.429688 234.585938 C 348.515625 251.75 341.8125 271.210938 341.410156 274.703125 C 340.90625 279.082031 343.976562 285 345.890625 288.015625 L 369 288.285156 C 370.515625 288.308594 371.753906 289.496094 371.828125 291.011719 L 373.867188 330.71875 C 373.910156 331.511719 373.621094 332.28125 373.074219 332.855469 C 372.53125 333.414062 371.785156 333.726562 371.007812 333.726562 Z M 275.847656 287.191406 L 339.242188 287.9375 C 337.300781 284.234375 335.152344 278.878906 335.710938 274.046875 C 336.152344 270.210938 341.027344 255.875 349.011719 232.71875 C 354.980469 215.40625 361.144531 197.5 363.480469 188.808594 C 369.394531 166.855469 330.277344 100.65625 309.257812 65.09375 C 305.40625 58.566406 301.988281 52.789062 299.492188 48.371094 C 292.53125 51.929688 288.25 56.347656 286.4375 61.824219 C 282.191406 74.664062 291.964844 92.078125 301.425781 108.921875 C 304.390625 114.203125 307.441406 119.632812 309.988281 124.835938 C 313.761719 124.269531 317.863281 124.316406 322.28125 124.980469 C 323.839844 125.152344 324.972656 126.535156 324.824219 128.105469 L 318.398438 196.609375 C 318.257812 198.097656 317.007812 199.210938 315.546875 199.210938 C 315.457031 199.210938 315.367188 199.210938 315.277344 199.203125 C 313.695312 199.050781 312.535156 197.65625 312.683594 196.074219 L 318.855469 130.335938 C 315.34375 130.011719 312.144531 130.15625 309.238281 130.777344 C 309.066406 130.835938 308.890625 130.875 308.714844 130.894531 C 305.007812 131.769531 301.78125 133.433594 298.976562 135.898438 C 283.957031 149.117188 284.722656 182.011719 285.230469 203.785156 C 285.277344 205.710938 285.320312 207.542969 285.347656 209.257812 C 285.582031 223.167969 283.214844 227.417969 278.921875 235.125 C 276.816406 238.902344 274.195312 243.597656 271.035156 250.921875 C 263.335938 268.773438 272.929688 283.359375 275.847656 287.191406 Z M 192.535156 218.121094 C 196.238281 217.613281 199.265625 215.957031 201.648438 213.164062 C 204.03125 210.371094 205.1875 206.929688 205.121094 202.859375 C 205.070312 199.402344 204.15625 196.632812 202.417969 194.558594 C 200.671875 192.488281 197.222656 190.660156 192.070312 189.078125 Z M 185.855469 152.257812 C 182.15625 152.878906 179.242188 154.410156 177.144531 156.851562 C 175.046875 159.292969 174.023438 162.144531 174.074219 165.445312 C 174.128906 168.6875 175.074219 171.402344 176.941406 173.5625 C 178.800781 175.726562 181.90625 177.429688 186.273438 178.660156 Z M 187.179688 235.824219 L 187.03125 226.285156 C 182.246094 225.769531 178.351562 224.761719 175.34375 223.265625 C 172.328125 221.773438 169.699219 219.316406 167.472656 215.933594 C 165.25 212.53125 163.910156 208.371094 163.492188 203.433594 L 173.058594 201.472656 C 173.882812 206.578125 175.246094 210.328125 177.164062 212.703125 C 179.902344 216.0625 183.144531 217.890625 186.902344 218.210938 L 186.417969 187.84375 C 182.484375 187.164062 178.457031 185.703125 174.304688 183.46875 C 171.246094 181.820312 168.871094 179.503906 167.175781 176.527344 C 165.484375 173.546875 164.613281 170.15625 164.546875 166.332031 C 164.445312 159.546875 166.765625 154.007812 171.492188 149.734375 C 174.671875 146.839844 179.421875 145.046875 185.730469 144.308594 L 185.65625 139.753906 L 191.289062 139.664062 L 191.359375 144.21875 C 196.902344 144.65625 201.34375 146.21875 204.628906 148.875 C 208.863281 152.273438 211.4375 156.992188 212.386719 163.027344 L 202.546875 164.660156 C 201.925781 160.929688 200.699219 158.066406 198.878906 156.105469 C 197.074219 154.140625 194.609375 152.855469 191.488281 152.273438 L 191.921875 179.789062 C 196.738281 180.921875 199.9375 181.8125 201.507812 182.460938 C 204.496094 183.714844 206.941406 185.269531 208.839844 187.105469 C 210.75 188.957031 212.238281 191.160156 213.273438 193.714844 C 214.328125 196.289062 214.878906 199.066406 214.925781 202.070312 C 215.027344 208.699219 212.996094 214.230469 208.867188 218.71875 C 204.742188 223.214844 199.328125 225.65625 192.660156 226.089844 L 192.808594 235.734375 Z M 187.464844 267.355469 C 166.675781 267.355469 147.058594 259.417969 132.097656 244.925781 C 116.828125 230.128906 108.226562 210.265625 107.890625 189.011719 C 107.554688 167.746094 115.511719 147.621094 130.3125 132.34375 C 145.113281 117.070312 164.964844 108.476562 186.230469 108.140625 C 207.476562 107.824219 227.617188 115.761719 242.894531 130.5625 C 258.164062 145.351562 266.765625 165.214844 267.101562 186.480469 C 267.4375 207.742188 259.476562 227.867188 244.679688 243.136719 C 229.878906 258.410156 210.027344 267.011719 188.761719 267.351562 C 188.332031 267.355469 187.894531 267.355469 187.464844 267.355469 Z M 187.464844 267.355469 " clip-rule="evenodd"/></clipPath><linearGradient x1="-0.454476" gradientTransform="matrix(2.435065, 0, 0, 2.435065, -23.620124, -23.376619)" y1="60.542421" x2="173.854154" gradientUnits="userSpaceOnUse" y2="112.746386" id="5b23834bb8"><stop stop-opacity="1" stop-color="rgb(74.099731%, 97.999573%, 99.198914%)" offset="0"/><stop stop-opacity="1" stop-color="rgb(74.099731%, 97.999573%, 99.198914%)" offset="0.015625"/><stop stop-opacity="1" stop-color="rgb(73.825073%, 97.923279%, 99.156189%)" offset="0.0195312"/><stop stop-opacity="1" stop-color="rgb(73.551941%, 97.848511%, 99.11499%)" offset="0.0234375"/><stop stop-opacity="1" stop-color="rgb(72.950745%, 97.68219%, 99.021912%)" offset="0.0273438"/><stop stop-opacity="1" stop-color="rgb(72.351074%, 97.517395%, 98.930359%)" offset="0.03125"/><stop stop-opacity="1" stop-color="rgb(71.749878%, 97.3526%, 98.83728%)" offset="0.0351563"/><stop stop-opacity="1" stop-color="rgb(71.150208%, 97.187805%, 98.745728%)" offset="0.0390625"/><stop stop-opacity="1" stop-color="rgb(70.549011%, 97.021484%, 98.652649%)" offset="0.0429688"/><stop stop-opacity="1" stop-color="rgb(69.949341%, 96.856689%, 98.561096%)" offset="0.046875"/><stop stop-opacity="1" stop-color="rgb(69.348145%, 96.690369%, 98.468018%)" offset="0.0507813"/><stop stop-opacity="1" stop-color="rgb(68.748474%, 96.525574%, 98.376465%)" offset="0.0546875"/><stop stop-opacity="1" stop-color="rgb(68.147278%, 96.360779%, 98.283386%)" offset="0.0585938"/><stop stop-opacity="1" stop-color="rgb(67.547607%, 96.195984%, 98.191833%)" offset="0.0625"/><stop stop-opacity="1" stop-color="rgb(66.946411%, 96.029663%, 98.098755%)" offset="0.0664063"/><stop stop-opacity="1" stop-color="rgb(66.345215%, 95.864868%, 98.005676%)" offset="0.0703125"/><stop stop-opacity="1" stop-color="rgb(65.744019%, 95.698547%, 97.912598%)" offset="0.0742188"/><stop stop-opacity="1" stop-color="rgb(65.144348%, 95.533752%, 97.821045%)" offset="0.078125"/><stop stop-opacity="1" stop-color="rgb(64.543152%, 95.368958%, 97.727966%)" offset="0.0820312"/><stop stop-opacity="1" stop-color="rgb(63.943481%, 95.204163%, 97.636414%)" offset="0.0859375"/><stop stop-opacity="1" stop-color="rgb(63.342285%, 95.037842%, 97.543335%)" offset="0.0898438"/><stop stop-opacity="1" stop-color="rgb(62.742615%, 94.873047%, 97.451782%)" offset="0.09375"/><stop stop-opacity="1" stop-color="rgb(62.141418%, 94.706726%, 97.358704%)" offset="0.0976562"/><stop stop-opacity="1" stop-color="rgb(61.541748%, 94.541931%, 97.267151%)" offset="0.101563"/><stop stop-opacity="1" stop-color="rgb(60.940552%, 94.377136%, 97.174072%)" offset="0.105469"/><stop stop-opacity="1" stop-color="rgb(60.340881%, 94.212341%, 97.08252%)" offset="0.109375"/><stop stop-opacity="1" stop-color="rgb(59.739685%, 94.046021%, 96.989441%)" offset="0.113281"/><stop stop-opacity="1" stop-color="rgb(59.140015%, 93.881226%, 96.897888%)" offset="0.117188"/><stop stop-opacity="1" stop-color="rgb(58.538818%, 93.714905%, 96.80481%)" offset="0.121094"/><stop stop-opacity="1" stop-color="rgb(57.939148%, 93.55011%, 96.713257%)" offset="0.125"/><stop stop-opacity="1" stop-color="rgb(57.337952%, 93.383789%, 96.620178%)" offset="0.128906"/><stop stop-opacity="1" stop-color="rgb(56.738281%, 93.218994%, 96.528625%)" offset="0.132813"/><stop stop-opacity="1" stop-color="rgb(56.137085%, 93.054199%, 96.435547%)" offset="0.136719"/><stop stop-opacity="1" stop-color="rgb(55.537415%, 92.889404%, 96.343994%)" offset="0.140625"/><stop stop-opacity="1" stop-color="rgb(54.936218%, 92.723083%, 96.250916%)" offset="0.144531"/><stop stop-opacity="1" stop-color="rgb(54.336548%, 92.558289%, 96.159363%)" offset="0.148438"/><stop stop-opacity="1" stop-color="rgb(53.735352%, 92.391968%, 96.066284%)" offset="0.152344"/><stop stop-opacity="1" stop-color="rgb(53.135681%, 92.227173%, 95.974731%)" offset="0.15625"/><stop stop-opacity="1" stop-color="rgb(52.534485%, 92.062378%, 95.881653%)" offset="0.160156"/><stop stop-opacity="1" stop-color="rgb(51.934814%, 91.897583%, 95.788574%)" offset="0.164063"/><stop stop-opacity="1" stop-color="rgb(51.333618%, 91.731262%, 95.695496%)" offset="0.167969"/><stop stop-opacity="1" stop-color="rgb(50.733948%, 91.566467%, 95.603943%)" offset="0.171875"/><stop stop-opacity="1" stop-color="rgb(50.132751%, 91.400146%, 95.510864%)" offset="0.175781"/><stop stop-opacity="1" stop-color="rgb(49.533081%, 91.235352%, 95.419312%)" offset="0.179688"/><stop stop-opacity="1" stop-color="rgb(48.931885%, 91.070557%, 95.326233%)" offset="0.183594"/><stop stop-opacity="1" stop-color="rgb(48.332214%, 90.905762%, 95.23468%)" offset="0.1875"/><stop stop-opacity="1" stop-color="rgb(47.731018%, 90.739441%, 95.141602%)" offset="0.191406"/><stop stop-opacity="1" stop-color="rgb(47.131348%, 90.574646%, 95.050049%)" offset="0.195313"/><stop stop-opacity="1" stop-color="rgb(46.530151%, 90.408325%, 94.95697%)" offset="0.199219"/><stop stop-opacity="1" stop-color="rgb(45.928955%, 90.24353%, 94.865417%)" offset="0.203125"/><stop stop-opacity="1" stop-color="rgb(45.327759%, 90.078735%, 94.772339%)" offset="0.207031"/><stop stop-opacity="1" stop-color="rgb(44.728088%, 89.91394%, 94.680786%)" offset="0.210938"/><stop stop-opacity="1" stop-color="rgb(44.126892%, 89.74762%, 94.587708%)" offset="0.214844"/><stop stop-opacity="1" stop-color="rgb(43.527222%, 89.582825%, 94.496155%)" offset="0.21875"/><stop stop-opacity="1" stop-color="rgb(42.926025%, 89.416504%, 94.403076%)" offset="0.222656"/><stop stop-opacity="1" stop-color="rgb(42.326355%, 89.251709%, 94.311523%)" offset="0.226563"/><stop stop-opacity="1" stop-color="rgb(41.725159%, 89.086914%, 94.218445%)" offset="0.230469"/><stop stop-opacity="1" stop-color="rgb(41.125488%, 88.922119%, 94.126892%)" offset="0.234375"/><stop stop-opacity="1" stop-color="rgb(40.524292%, 88.755798%, 94.033813%)" offset="0.238281"/><stop stop-opacity="1" stop-color="rgb(39.924622%, 88.591003%, 93.942261%)" offset="0.242188"/><stop stop-opacity="1" stop-color="rgb(39.323425%, 88.424683%, 93.849182%)" offset="0.246094"/><stop stop-opacity="1" stop-color="rgb(38.723755%, 88.259888%, 93.757629%)" offset="0.25"/><stop stop-opacity="1" stop-color="rgb(38.122559%, 88.095093%, 93.664551%)" offset="0.253906"/><stop stop-opacity="1" stop-color="rgb(37.522888%, 87.930298%, 93.571472%)" offset="0.257812"/><stop stop-opacity="1" stop-color="rgb(36.921692%, 87.763977%, 93.478394%)" offset="0.261719"/><stop stop-opacity="1" stop-color="rgb(36.322021%, 87.599182%, 93.386841%)" offset="0.265625"/><stop stop-opacity="1" stop-color="rgb(35.720825%, 87.432861%, 93.293762%)" offset="0.269531"/><stop stop-opacity="1" stop-color="rgb(35.121155%, 87.268066%, 93.202209%)" offset="0.273438"/><stop stop-opacity="1" stop-color="rgb(34.519958%, 87.103271%, 93.109131%)" offset="0.277344"/><stop stop-opacity="1" stop-color="rgb(33.920288%, 86.938477%, 93.017578%)" offset="0.28125"/><stop stop-opacity="1" stop-color="rgb(33.319092%, 86.772156%, 92.9245%)" offset="0.285156"/><stop stop-opacity="1" stop-color="rgb(32.719421%, 86.607361%, 92.832947%)" offset="0.289062"/><stop stop-opacity="1" stop-color="rgb(32.118225%, 86.44104%, 92.739868%)" offset="0.292969"/><stop stop-opacity="1" stop-color="rgb(31.518555%, 86.276245%, 92.648315%)" offset="0.296875"/><stop stop-opacity="1" stop-color="rgb(30.917358%, 86.109924%, 92.555237%)" offset="0.300781"/><stop stop-opacity="1" stop-color="rgb(30.317688%, 85.945129%, 92.463684%)" offset="0.304688"/><stop stop-opacity="1" stop-color="rgb(29.716492%, 85.780334%, 92.370605%)" offset="0.308594"/><stop stop-opacity="1" stop-color="rgb(29.116821%, 85.61554%, 92.279053%)" offset="0.3125"/><stop stop-opacity="1" stop-color="rgb(28.515625%, 85.449219%, 92.185974%)" offset="0.316406"/><stop stop-opacity="1" stop-color="rgb(27.915955%, 85.284424%, 92.094421%)" offset="0.320312"/><stop stop-opacity="1" stop-color="rgb(27.314758%, 85.118103%, 92.001343%)" offset="0.324219"/><stop stop-opacity="1" stop-color="rgb(26.715088%, 84.953308%, 91.90979%)" offset="0.328125"/><stop stop-opacity="1" stop-color="rgb(26.113892%, 84.788513%, 91.816711%)" offset="0.332031"/><stop stop-opacity="1" stop-color="rgb(25.512695%, 84.623718%, 91.725159%)" offset="0.335938"/><stop stop-opacity="1" stop-color="rgb(24.911499%, 84.457397%, 91.63208%)" offset="0.339844"/><stop stop-opacity="1" stop-color="rgb(24.311829%, 84.292603%, 91.539001%)" offset="0.34375"/><stop stop-opacity="1" stop-color="rgb(23.710632%, 84.126282%, 91.445923%)" offset="0.347656"/><stop stop-opacity="1" stop-color="rgb(23.110962%, 83.961487%, 91.35437%)" offset="0.351563"/><stop stop-opacity="1" stop-color="rgb(22.509766%, 83.796692%, 91.261292%)" offset="0.355469"/><stop stop-opacity="1" stop-color="rgb(21.910095%, 83.631897%, 91.169739%)" offset="0.359375"/><stop stop-opacity="1" stop-color="rgb(21.308899%, 83.465576%, 91.07666%)" offset="0.363281"/><stop stop-opacity="1" stop-color="rgb(20.709229%, 83.300781%, 90.985107%)" offset="0.367188"/><stop stop-opacity="1" stop-color="rgb(20.108032%, 83.13446%, 90.892029%)" offset="0.371094"/><stop stop-opacity="1" stop-color="rgb(19.508362%, 82.969666%, 90.800476%)" offset="0.375"/><stop stop-opacity="1" stop-color="rgb(18.907166%, 82.804871%, 90.707397%)" offset="0.378906"/><stop stop-opacity="1" stop-color="rgb(18.307495%, 82.640076%, 90.615845%)" offset="0.382813"/><stop stop-opacity="1" stop-color="rgb(17.706299%, 82.473755%, 90.522766%)" offset="0.386719"/><stop stop-opacity="1" stop-color="rgb(17.106628%, 82.30896%, 90.431213%)" offset="0.390625"/><stop stop-opacity="1" stop-color="rgb(16.505432%, 82.142639%, 90.338135%)" offset="0.394531"/><stop stop-opacity="1" stop-color="rgb(15.905762%, 81.977844%, 90.246582%)" offset="0.398438"/><stop stop-opacity="1" stop-color="rgb(15.304565%, 81.813049%, 90.153503%)" offset="0.402344"/><stop stop-opacity="1" stop-color="rgb(14.704895%, 81.648254%, 90.061951%)" offset="0.40625"/><stop stop-opacity="1" stop-color="rgb(14.103699%, 81.481934%, 89.968872%)" offset="0.410156"/><stop stop-opacity="1" stop-color="rgb(13.504028%, 81.317139%, 89.877319%)" offset="0.414063"/><stop stop-opacity="1" stop-color="rgb(12.902832%, 81.150818%, 89.784241%)" offset="0.417969"/><stop stop-opacity="1" stop-color="rgb(12.303162%, 80.986023%, 89.692688%)" offset="0.421875"/><stop stop-opacity="1" stop-color="rgb(11.701965%, 80.821228%, 89.599609%)" offset="0.425781"/><stop stop-opacity="1" stop-color="rgb(11.102295%, 80.656433%, 89.508057%)" offset="0.429688"/><stop stop-opacity="1" stop-color="rgb(10.501099%, 80.490112%, 89.414978%)" offset="0.433594"/><stop stop-opacity="1" stop-color="rgb(9.901428%, 80.325317%, 89.321899%)" offset="0.4375"/><stop stop-opacity="1" stop-color="rgb(9.300232%, 80.158997%, 89.228821%)" offset="0.441406"/><stop stop-opacity="1" stop-color="rgb(8.700562%, 79.994202%, 89.137268%)" offset="0.445313"/><stop stop-opacity="1" stop-color="rgb(8.099365%, 79.829407%, 89.044189%)" offset="0.449219"/><stop stop-opacity="1" stop-color="rgb(7.499695%, 79.664612%, 88.952637%)" offset="0.453125"/><stop stop-opacity="1" stop-color="rgb(6.898499%, 79.498291%, 88.859558%)" offset="0.457031"/><stop stop-opacity="1" stop-color="rgb(6.297302%, 79.333496%, 88.768005%)" offset="0.460938"/><stop stop-opacity="1" stop-color="rgb(5.696106%, 79.167175%, 88.674927%)" offset="0.464844"/><stop stop-opacity="1" stop-color="rgb(5.096436%, 79.00238%, 88.583374%)" offset="0.46875"/><stop stop-opacity="1" stop-color="rgb(4.495239%, 78.837585%, 88.490295%)" offset="0.472656"/><stop stop-opacity="1" stop-color="rgb(3.895569%, 78.672791%, 88.398743%)" offset="0.476563"/><stop stop-opacity="1" stop-color="rgb(3.294373%, 78.50647%, 88.305664%)" offset="0.480469"/><stop stop-opacity="1" stop-color="rgb(2.694702%, 78.341675%, 88.214111%)" offset="0.484375"/><stop stop-opacity="1" stop-color="rgb(2.093506%, 78.175354%, 88.121033%)" offset="0.488281"/><stop stop-opacity="1" stop-color="rgb(1.493835%, 78.010559%, 88.02948%)" offset="0.492188"/><stop stop-opacity="1" stop-color="rgb(0.892639%, 77.844238%, 87.936401%)" offset="0.496094"/><stop stop-opacity="1" stop-color="rgb(0.292969%, 77.679443%, 87.844849%)" offset="0.5"/><stop stop-opacity="1" stop-color="rgb(0.15564%, 77.441406%, 87.619019%)" offset="0.503906"/><stop stop-opacity="1" stop-color="rgb(0.0183105%, 77.203369%, 87.393188%)" offset="0.507813"/><stop stop-opacity="1" stop-color="rgb(0.0320435%, 76.940918%, 87.124634%)" offset="0.511719"/><stop stop-opacity="1" stop-color="rgb(0.0457764%, 76.678467%, 86.856079%)" offset="0.515625"/><stop stop-opacity="1" stop-color="rgb(0.0579834%, 76.416016%, 86.587524%)" offset="0.519531"/><stop stop-opacity="1" stop-color="rgb(0.0717163%, 76.15509%, 86.31897%)" offset="0.523438"/><stop stop-opacity="1" stop-color="rgb(0.0839233%, 75.892639%, 86.048889%)" offset="0.527344"/><stop stop-opacity="1" stop-color="rgb(0.0976562%, 75.630188%, 85.780334%)" offset="0.53125"/><stop stop-opacity="1" stop-color="rgb(0.109863%, 75.367737%, 85.51178%)" offset="0.535156"/><stop stop-opacity="1" stop-color="rgb(0.123596%, 75.105286%, 85.243225%)" offset="0.539063"/><stop stop-opacity="1" stop-color="rgb(0.135803%, 74.842834%, 84.97467%)" offset="0.542969"/><stop stop-opacity="1" stop-color="rgb(0.149536%, 74.580383%, 84.706116%)" offset="0.546875"/><stop stop-opacity="1" stop-color="rgb(0.161743%, 74.317932%, 84.437561%)" offset="0.550781"/><stop stop-opacity="1" stop-color="rgb(0.175476%, 74.057007%, 84.169006%)" offset="0.554688"/><stop stop-opacity="1" stop-color="rgb(0.187683%, 73.794556%, 83.898926%)" offset="0.558594"/><stop stop-opacity="1" stop-color="rgb(0.201416%, 73.532104%, 83.630371%)" offset="0.5625"/><stop stop-opacity="1" stop-color="rgb(0.213623%, 73.269653%, 83.361816%)" offset="0.566406"/><stop stop-opacity="1" stop-color="rgb(0.227356%, 73.007202%, 83.093262%)" offset="0.570312"/><stop stop-opacity="1" stop-color="rgb(0.241089%, 72.744751%, 82.824707%)" offset="0.574219"/><stop stop-opacity="1" stop-color="rgb(0.254822%, 72.483826%, 82.556152%)" offset="0.578125"/><stop stop-opacity="1" stop-color="rgb(0.267029%, 72.221375%, 82.287598%)" offset="0.582031"/><stop stop-opacity="1" stop-color="rgb(0.280762%, 71.958923%, 82.019043%)" offset="0.585938"/><stop stop-opacity="1" stop-color="rgb(0.292969%, 71.696472%, 81.748962%)" offset="0.589844"/><stop stop-opacity="1" stop-color="rgb(0.306702%, 71.434021%, 81.480408%)" offset="0.59375"/><stop stop-opacity="1" stop-color="rgb(0.318909%, 71.17157%, 81.211853%)" offset="0.597656"/><stop stop-opacity="1" stop-color="rgb(0.332642%, 70.910645%, 80.943298%)" offset="0.601562"/><stop stop-opacity="1" stop-color="rgb(0.344849%, 70.648193%, 80.674744%)" offset="0.605469"/><stop stop-opacity="1" stop-color="rgb(0.358582%, 70.385742%, 80.406189%)" offset="0.609375"/><stop stop-opacity="1" stop-color="rgb(0.370789%, 70.123291%, 80.136108%)" offset="0.613281"/><stop stop-opacity="1" stop-color="rgb(0.384521%, 69.86084%, 79.867554%)" offset="0.617188"/><stop stop-opacity="1" stop-color="rgb(0.396729%, 69.598389%, 79.598999%)" offset="0.621094"/><stop stop-opacity="1" stop-color="rgb(0.410461%, 69.337463%, 79.330444%)" offset="0.625"/><stop stop-opacity="1" stop-color="rgb(0.424194%, 69.075012%, 79.06189%)" offset="0.628906"/><stop stop-opacity="1" stop-color="rgb(0.437927%, 68.812561%, 78.793335%)" offset="0.632812"/><stop stop-opacity="1" stop-color="rgb(0.450134%, 68.55011%, 78.52478%)" offset="0.636719"/><stop stop-opacity="1" stop-color="rgb(0.463867%, 68.287659%, 78.256226%)" offset="0.640625"/><stop stop-opacity="1" stop-color="rgb(0.476074%, 68.025208%, 77.986145%)" offset="0.644531"/><stop stop-opacity="1" stop-color="rgb(0.489807%, 67.762756%, 77.71759%)" offset="0.648438"/><stop stop-opacity="1" stop-color="rgb(0.502014%, 67.500305%, 77.449036%)" offset="0.652344"/><stop stop-opacity="1" stop-color="rgb(0.515747%, 67.23938%, 77.180481%)" offset="0.65625"/><stop stop-opacity="1" stop-color="rgb(0.527954%, 66.976929%, 76.911926%)" offset="0.660156"/><stop stop-opacity="1" stop-color="rgb(0.541687%, 66.714478%, 76.643372%)" offset="0.664062"/><stop stop-opacity="1" stop-color="rgb(0.553894%, 66.452026%, 76.374817%)" offset="0.667969"/><stop stop-opacity="1" stop-color="rgb(0.567627%, 66.189575%, 76.106262%)" offset="0.671875"/><stop stop-opacity="1" stop-color="rgb(0.579834%, 65.927124%, 75.836182%)" offset="0.675781"/><stop stop-opacity="1" stop-color="rgb(0.593567%, 65.666199%, 75.567627%)" offset="0.679688"/><stop stop-opacity="1" stop-color="rgb(0.605774%, 65.403748%, 75.299072%)" offset="0.683594"/><stop stop-opacity="1" stop-color="rgb(0.619507%, 65.141296%, 75.030518%)" offset="0.6875"/><stop stop-opacity="1" stop-color="rgb(0.63324%, 64.878845%, 74.761963%)" offset="0.691406"/><stop stop-opacity="1" stop-color="rgb(0.646973%, 64.616394%, 74.493408%)" offset="0.695313"/><stop stop-opacity="1" stop-color="rgb(0.65918%, 64.353943%, 74.224854%)" offset="0.699219"/><stop stop-opacity="1" stop-color="rgb(0.672913%, 64.093018%, 73.956299%)" offset="0.703125"/><stop stop-opacity="1" stop-color="rgb(0.68512%, 63.830566%, 73.686218%)" offset="0.707031"/><stop stop-opacity="1" stop-color="rgb(0.698853%, 63.568115%, 73.417664%)" offset="0.710938"/><stop stop-opacity="1" stop-color="rgb(0.71106%, 63.305664%, 73.149109%)" offset="0.714844"/><stop stop-opacity="1" stop-color="rgb(0.724792%, 63.043213%, 72.880554%)" offset="0.71875"/><stop stop-opacity="1" stop-color="rgb(0.737%, 62.780762%, 72.612%)" offset="0.722656"/><stop stop-opacity="1" stop-color="rgb(0.750732%, 62.519836%, 72.343445%)" offset="0.726563"/><stop stop-opacity="1" stop-color="rgb(0.762939%, 62.257385%, 72.07489%)" offset="0.730469"/><stop stop-opacity="1" stop-color="rgb(0.776672%, 61.994934%, 71.806335%)" offset="0.734375"/><stop stop-opacity="1" stop-color="rgb(0.788879%, 61.732483%, 71.536255%)" offset="0.738281"/><stop stop-opacity="1" stop-color="rgb(0.802612%, 61.470032%, 71.2677%)" offset="0.742188"/><stop stop-opacity="1" stop-color="rgb(0.814819%, 61.207581%, 70.999146%)" offset="0.746094"/><stop stop-opacity="1" stop-color="rgb(0.828552%, 60.945129%, 70.730591%)" offset="0.75"/><stop stop-opacity="1" stop-color="rgb(0.842285%, 60.682678%, 70.462036%)" offset="0.753906"/><stop stop-opacity="1" stop-color="rgb(0.856018%, 60.421753%, 70.193481%)" offset="0.757813"/><stop stop-opacity="1" stop-color="rgb(0.868225%, 60.159302%, 69.924927%)" offset="0.761719"/><stop stop-opacity="1" stop-color="rgb(0.881958%, 59.896851%, 69.656372%)" offset="0.765625"/><stop stop-opacity="1" stop-color="rgb(0.894165%, 59.634399%, 69.386292%)" offset="0.769531"/><stop stop-opacity="1" stop-color="rgb(0.907898%, 59.371948%, 69.117737%)" offset="0.773438"/><stop stop-opacity="1" stop-color="rgb(0.920105%, 59.109497%, 68.849182%)" offset="0.777344"/><stop stop-opacity="1" stop-color="rgb(0.933838%, 58.848572%, 68.580627%)" offset="0.78125"/><stop stop-opacity="1" stop-color="rgb(0.946045%, 58.586121%, 68.312073%)" offset="0.785156"/><stop stop-opacity="1" stop-color="rgb(0.959778%, 58.323669%, 68.043518%)" offset="0.789063"/><stop stop-opacity="1" stop-color="rgb(0.971985%, 58.061218%, 67.774963%)" offset="0.792969"/><stop stop-opacity="1" stop-color="rgb(0.985718%, 57.798767%, 67.506409%)" offset="0.796875"/><stop stop-opacity="1" stop-color="rgb(0.997925%, 57.536316%, 67.236328%)" offset="0.800781"/><stop stop-opacity="1" stop-color="rgb(1.011658%, 57.275391%, 66.967773%)" offset="0.804688"/><stop stop-opacity="1" stop-color="rgb(1.025391%, 57.012939%, 66.699219%)" offset="0.808594"/><stop stop-opacity="1" stop-color="rgb(1.039124%, 56.750488%, 66.430664%)" offset="0.8125"/><stop stop-opacity="1" stop-color="rgb(1.051331%, 56.488037%, 66.162109%)" offset="0.816406"/><stop stop-opacity="1" stop-color="rgb(1.065063%, 56.225586%, 65.893555%)" offset="0.820313"/><stop stop-opacity="1" stop-color="rgb(1.077271%, 55.963135%, 65.625%)" offset="0.824219"/><stop stop-opacity="1" stop-color="rgb(1.091003%, 55.702209%, 65.356445%)" offset="0.828125"/><stop stop-opacity="1" stop-color="rgb(1.10321%, 55.439758%, 65.086365%)" offset="0.832031"/><stop stop-opacity="1" stop-color="rgb(1.116943%, 55.177307%, 64.81781%)" offset="0.835938"/><stop stop-opacity="1" stop-color="rgb(1.12915%, 54.914856%, 64.549255%)" offset="0.839844"/><stop stop-opacity="1" stop-color="rgb(1.142883%, 54.652405%, 64.280701%)" offset="0.84375"/><stop stop-opacity="1" stop-color="rgb(1.15509%, 54.389954%, 64.012146%)" offset="0.847656"/><stop stop-opacity="1" stop-color="rgb(1.168823%, 54.127502%, 63.743591%)" offset="0.851563"/><stop stop-opacity="1" stop-color="rgb(1.18103%, 53.865051%, 63.475037%)" offset="0.855469"/><stop stop-opacity="1" stop-color="rgb(1.194763%, 53.604126%, 63.206482%)" offset="0.859375"/><stop stop-opacity="1" stop-color="rgb(1.20697%, 53.341675%, 62.936401%)" offset="0.863281"/><stop stop-opacity="1" stop-color="rgb(1.220703%, 53.079224%, 62.667847%)" offset="0.867188"/><stop stop-opacity="1" stop-color="rgb(1.234436%, 52.816772%, 62.399292%)" offset="0.871094"/><stop stop-opacity="1" stop-color="rgb(1.248169%, 52.554321%, 62.130737%)" offset="0.875"/><stop stop-opacity="1" stop-color="rgb(1.260376%, 52.29187%, 61.862183%)" offset="0.878906"/><stop stop-opacity="1" stop-color="rgb(1.274109%, 52.030945%, 61.593628%)" offset="0.882813"/><stop stop-opacity="1" stop-color="rgb(1.286316%, 51.768494%, 61.325073%)" offset="0.886719"/><stop stop-opacity="1" stop-color="rgb(1.300049%, 51.506042%, 61.056519%)" offset="0.890625"/><stop stop-opacity="1" stop-color="rgb(1.312256%, 51.243591%, 60.786438%)" offset="0.894531"/><stop stop-opacity="1" stop-color="rgb(1.325989%, 50.98114%, 60.517883%)" offset="0.898438"/><stop stop-opacity="1" stop-color="rgb(1.338196%, 50.718689%, 60.249329%)" offset="0.902344"/><stop stop-opacity="1" stop-color="rgb(1.351929%, 50.457764%, 59.980774%)" offset="0.90625"/><stop stop-opacity="1" stop-color="rgb(1.364136%, 50.195312%, 59.712219%)" offset="0.910156"/><stop stop-opacity="1" stop-color="rgb(1.377869%, 49.932861%, 59.443665%)" offset="0.914063"/><stop stop-opacity="1" stop-color="rgb(1.390076%, 49.67041%, 59.173584%)" offset="0.917969"/><stop stop-opacity="1" stop-color="rgb(1.403809%, 49.407959%, 58.905029%)" offset="0.921875"/><stop stop-opacity="1" stop-color="rgb(1.417542%, 49.145508%, 58.636475%)" offset="0.925781"/><stop stop-opacity="1" stop-color="rgb(1.431274%, 48.884583%, 58.36792%)" offset="0.929688"/><stop stop-opacity="1" stop-color="rgb(1.443481%, 48.622131%, 58.099365%)" offset="0.933594"/><stop stop-opacity="1" stop-color="rgb(1.457214%, 48.35968%, 57.830811%)" offset="0.9375"/><stop stop-opacity="1" stop-color="rgb(1.469421%, 48.097229%, 57.562256%)" offset="0.941406"/><stop stop-opacity="1" stop-color="rgb(1.483154%, 47.834778%, 57.293701%)" offset="0.945313"/><stop stop-opacity="1" stop-color="rgb(1.495361%, 47.572327%, 57.023621%)" offset="0.949219"/><stop stop-opacity="1" stop-color="rgb(1.509094%, 47.309875%, 56.755066%)" offset="0.953125"/><stop stop-opacity="1" stop-color="rgb(1.521301%, 47.047424%, 56.486511%)" offset="0.957031"/><stop stop-opacity="1" stop-color="rgb(1.535034%, 46.786499%, 56.217957%)" offset="0.960938"/><stop stop-opacity="1" stop-color="rgb(1.547241%, 46.524048%, 55.949402%)" offset="0.964844"/><stop stop-opacity="1" stop-color="rgb(1.560974%, 46.261597%, 55.680847%)" offset="0.96875"/><stop stop-opacity="1" stop-color="rgb(1.573181%, 45.999146%, 55.412292%)" offset="0.972656"/><stop stop-opacity="1" stop-color="rgb(1.586914%, 45.736694%, 55.143738%)" offset="0.976562"/><stop stop-opacity="1" stop-color="rgb(1.593018%, 45.617676%, 55.021667%)" offset="0.984375"/><stop stop-opacity="1" stop-color="rgb(1.599121%, 45.498657%, 54.899597%)" offset="1"/></linearGradient></defs><g clip-path="url(#5f1f08f70f)"><g clip-path="url(#a59de13b99)"><path fill="url(#5b23834bb8)" d="M 0 41.484375 L 0 333.726562 L 375 333.726562 L 375 41.484375 Z M 0 41.484375 " fill-rule="nonzero"/></g></g></svg>