<svg xmlns="http://www.w3.org/2000/svg" xmlns:xlink="http://www.w3.org/1999/xlink" width="500" zoomAndPan="magnify" viewBox="0 0 375 374.999991" height="500" preserveAspectRatio="xMidYMid meet" version="1.0"><defs><clipPath id="dd9a00d7d4"><path d="M 5 24.328125 L 369.96875 24.328125 L 369.96875 350.578125 L 5 350.578125 Z M 5 24.328125 " clip-rule="nonzero"/></clipPath><clipPath id="d8d3016107"><path d="M 275.433594 187.074219 C 266.867188 186.933594 266.875 174.1875 275.433594 174.046875 C 275.433594 174.046875 288.964844 174.046875 288.964844 174.046875 C 297.527344 174.1875 297.523438 186.933594 288.964844 187.074219 C 288.964844 187.074219 275.433594 187.074219 275.433594 187.074219 Z M 353.015625 180.789062 L 332.144531 180.789062 C 324.464844 159.738281 310.4375 141.382812 292.105469 128.429688 C 292.105469 128.429688 292.105469 83.605469 292.105469 83.605469 C 291.082031 68.304688 256.058594 83.175781 250.066406 89.234375 C 243.335938 94.34375 237.800781 100.902344 233.875 108.382812 C 232.105469 108.28125 230.320312 108.25 228.53125 108.210938 C 228.53125 108.210938 204.375 108.210938 204.375 108.210938 C 217.011719 67.605469 184.449219 24.296875 141.898438 24.980469 C 88.679688 24.257812 57.132812 88.34375 90.375 129.828125 C 68.160156 146.207031 52.722656 170.460938 47.625 198.378906 L 25.171875 198.378906 C 14.109375 198.378906 5.109375 207.378906 5.109375 218.441406 C 5.109375 229.5 14.109375 238.503906 25.171875 238.503906 L 47.507812 238.503906 C 52.722656 266.707031 68.796875 291.800781 92.398438 308.449219 C 92.398438 308.449219 92.398438 338.941406 92.398438 338.941406 C 92.398438 345.40625 97.625 350.667969 104.058594 350.667969 C 104.058594 350.667969 145.542969 350.667969 145.542969 350.667969 C 152.011719 350.667969 157.273438 345.40625 157.273438 338.941406 L 157.273438 328.652344 L 194.011719 328.652344 C 202.59375 328.464844 202.566406 315.789062 194.011719 315.625 C 194.011719 315.625 155.90625 315.625 155.90625 315.625 C 150.757812 315.015625 144.5 315.148438 144.246094 321.878906 C 144.246094 321.875 144.246094 337.640625 144.246094 337.640625 L 105.425781 337.640625 C 105.425781 337.640625 105.425781 305.007812 105.425781 305.007812 C 105.425781 302.820312 104.324219 300.769531 102.492188 299.570312 C 78.808594 283.964844 63.148438 258.980469 59.507812 231.015625 C 59.0625 227.429688 55.363281 224.835938 51.804688 225.476562 C 51.804688 225.476562 25.171875 225.476562 25.171875 225.476562 C 16.054688 225.347656 15.824219 211.578125 25.171875 211.40625 C 25.171875 211.40625 51.925781 211.410156 51.925781 211.410156 C 55.5 212.203125 59.242188 209.484375 59.644531 205.851562 C 64.371094 169.257812 88.949219 138.921875 123.796875 126.683594 C 131.847656 123.757812 127.570312 111.648438 119.480469 114.390625 C 113.089844 116.636719 107.035156 119.457031 101.296875 122.71875 C 93.84375 113.570312 89.789062 102.171875 89.789062 90.117188 C 89.789062 61.386719 113.164062 38.007812 141.898438 38.007812 C 177.429688 37.335938 203.789062 75.203125 190.679688 108.210938 C 190.679688 108.210938 153.675781 108.210938 153.675781 108.210938 C 145.117188 108.390625 145.09375 121.066406 153.675781 121.238281 C 153.875 121.253906 194.742188 121.222656 194.925781 121.238281 C 201.890625 121.28125 230.847656 121.011719 237.296875 121.683594 C 240.066406 121.941406 242.742188 120.332031 243.851562 117.738281 C 249.835938 103.464844 263.699219 92.652344 279.078125 90.578125 C 279.078125 90.578125 279.078125 131.871094 279.078125 131.871094 C 279.078125 134.0625 280.179688 136.109375 282.011719 137.3125 C 300.625 149.582031 314.566406 168.027344 321.265625 189.261719 C 322.125 191.972656 324.636719 193.816406 327.480469 193.816406 L 353.015625 193.816406 C 355.132812 193.816406 356.855469 195.566406 356.855469 197.722656 C 356.855469 197.722656 356.855469 239.152344 356.855469 239.152344 C 356.855469 241.308594 355.132812 243.0625 353.015625 243.0625 C 353.015625 243.0625 327.480469 243.0625 327.480469 243.0625 C 324.636719 243.0625 322.125 244.90625 321.265625 247.617188 C 314.566406 268.851562 300.625 287.296875 282.011719 299.570312 C 280.179688 300.769531 279.078125 302.820312 279.078125 305.007812 L 279.078125 337.640625 L 240.257812 337.640625 L 240.257812 321.875 C 240.257812 320.0625 239.308594 318.351562 237.984375 317.117188 C 234.90625 314.207031 230.359375 315.964844 226.578125 315.625 C 217.59375 315.828125 218.269531 329.25 227.230469 328.652344 C 227.226562 328.652344 227.226562 338.941406 227.226562 338.941406 C 227.226562 345.40625 232.457031 350.667969 238.886719 350.667969 C 238.886719 350.667969 280.382812 350.667969 280.382812 350.667969 C 286.84375 350.667969 292.105469 345.40625 292.105469 338.941406 C 292.105469 338.941406 292.105469 308.449219 292.105469 308.449219 C 310.4375 295.496094 324.464844 277.140625 332.144531 256.089844 L 353.015625 256.089844 C 362.3125 256.089844 369.882812 248.488281 369.882812 239.152344 L 369.882812 197.722656 C 369.882812 188.382812 362.3125 180.789062 353.015625 180.789062 Z M 94.445312 254.238281 C 92.621094 251.121094 88.636719 250.085938 85.53125 251.90625 C 73.214844 259.210938 102.597656 284.371094 109.652344 288.714844 C 112.617188 290.675781 116.6875 289.890625 118.679688 286.867188 C 120.660156 283.863281 119.832031 279.824219 116.828125 277.839844 C 107.683594 271.800781 99.941406 263.640625 94.445312 254.238281 Z M 187.496094 264.035156 C 191.097656 264.035156 194.011719 261.121094 194.011719 257.523438 C 194.011719 257.523438 194.011719 253.3125 194.011719 253.3125 C 204.632812 252.402344 213.03125 243.5625 213.03125 232.707031 C 213.03125 221.25 203.710938 211.925781 192.253906 211.925781 L 182.738281 211.925781 C 172.5625 211.75 172.554688 196.59375 182.738281 196.417969 C 182.738281 196.417969 206.515625 196.417969 206.515625 196.417969 C 215.0625 196.292969 215.089844 183.523438 206.515625 183.390625 C 206.515625 183.390625 194.011719 183.390625 194.011719 183.390625 L 194.011719 179.355469 C 194.011719 175.757812 191.097656 172.84375 187.496094 172.84375 C 183.894531 172.84375 180.984375 175.757812 180.984375 179.355469 L 180.984375 183.566406 C 154.851562 186.292969 156.429688 224.371094 182.738281 224.953125 C 182.738281 224.953125 192.253906 224.953125 192.253906 224.953125 C 202.429688 225.128906 202.4375 240.285156 192.253906 240.460938 C 192.253906 240.460938 168.476562 240.460938 168.476562 240.460938 C 159.929688 240.585938 159.90625 253.355469 168.476562 253.488281 C 168.476562 253.488281 180.984375 253.488281 180.984375 253.488281 L 180.984375 257.523438 C 180.984375 261.121094 183.894531 264.035156 187.496094 264.035156 Z M 187.496094 264.035156 " clip-rule="nonzero"/></clipPath><linearGradient x1="3.999998" gradientTransform="matrix(6.513847, 0, 0, 6.513847, -20.946751, -20.61911)" y1="31.999001" x2="59.99999" gradientUnits="userSpaceOnUse" y2="31.999001" id="527b9e1afe"><stop stop-opacity="1" stop-color="rgb(0%, 77.598572%, 87.799072%)" offset="0"/><stop stop-opacity="1" stop-color="rgb(0.00610352%, 77.47345%, 87.670898%)" offset="0.0078125"/><stop stop-opacity="1" stop-color="rgb(0.0183105%, 77.223206%, 87.413025%)" offset="0.015625"/><stop stop-opacity="1" stop-color="rgb(0.0305176%, 76.971436%, 87.156677%)" offset="0.0234375"/><stop stop-opacity="1" stop-color="rgb(0.0427246%, 76.721191%, 86.898804%)" offset="0.03125"/><stop stop-opacity="1" stop-color="rgb(0.0549316%, 76.470947%, 86.642456%)" offset="0.0390625"/><stop stop-opacity="1" stop-color="rgb(0.0671387%, 76.219177%, 86.384583%)" offset="0.046875"/><stop stop-opacity="1" stop-color="rgb(0.0808716%, 75.968933%, 86.128235%)" offset="0.0546875"/><stop stop-opacity="1" stop-color="rgb(0.0930786%, 75.718689%, 85.871887%)" offset="0.0625"/><stop stop-opacity="1" stop-color="rgb(0.105286%, 75.466919%, 85.614014%)" offset="0.0703125"/><stop stop-opacity="1" stop-color="rgb(0.117493%, 75.216675%, 85.357666%)" offset="0.078125"/><stop stop-opacity="1" stop-color="rgb(0.1297%, 74.966431%, 85.099792%)" offset="0.0859375"/><stop stop-opacity="1" stop-color="rgb(0.143433%, 74.714661%, 84.843445%)" offset="0.09375"/><stop stop-opacity="1" stop-color="rgb(0.15564%, 74.464417%, 84.585571%)" offset="0.101562"/><stop stop-opacity="1" stop-color="rgb(0.167847%, 74.214172%, 84.329224%)" offset="0.109375"/><stop stop-opacity="1" stop-color="rgb(0.180054%, 73.962402%, 84.07135%)" offset="0.117188"/><stop stop-opacity="1" stop-color="rgb(0.192261%, 73.712158%, 83.815002%)" offset="0.125"/><stop stop-opacity="1" stop-color="rgb(0.205994%, 73.460388%, 83.557129%)" offset="0.132812"/><stop stop-opacity="1" stop-color="rgb(0.218201%, 73.210144%, 83.300781%)" offset="0.140625"/><stop stop-opacity="1" stop-color="rgb(0.230408%, 72.9599%, 83.044434%)" offset="0.148438"/><stop stop-opacity="1" stop-color="rgb(0.242615%, 72.70813%, 82.78656%)" offset="0.15625"/><stop stop-opacity="1" stop-color="rgb(0.254822%, 72.457886%, 82.530212%)" offset="0.164062"/><stop stop-opacity="1" stop-color="rgb(0.268555%, 72.207642%, 82.272339%)" offset="0.171875"/><stop stop-opacity="1" stop-color="rgb(0.280762%, 71.955872%, 82.015991%)" offset="0.179687"/><stop stop-opacity="1" stop-color="rgb(0.292969%, 71.705627%, 81.758118%)" offset="0.1875"/><stop stop-opacity="1" stop-color="rgb(0.305176%, 71.455383%, 81.50177%)" offset="0.195312"/><stop stop-opacity="1" stop-color="rgb(0.317383%, 71.203613%, 81.243896%)" offset="0.203125"/><stop stop-opacity="1" stop-color="rgb(0.32959%, 70.953369%, 80.987549%)" offset="0.210937"/><stop stop-opacity="1" stop-color="rgb(0.343323%, 70.703125%, 80.731201%)" offset="0.21875"/><stop stop-opacity="1" stop-color="rgb(0.35553%, 70.451355%, 80.473328%)" offset="0.226562"/><stop stop-opacity="1" stop-color="rgb(0.367737%, 70.201111%, 80.21698%)" offset="0.234375"/><stop stop-opacity="1" stop-color="rgb(0.379944%, 69.950867%, 79.959106%)" offset="0.242188"/><stop stop-opacity="1" stop-color="rgb(0.392151%, 69.699097%, 79.702759%)" offset="0.25"/><stop stop-opacity="1" stop-color="rgb(0.405884%, 69.448853%, 79.444885%)" offset="0.257812"/><stop stop-opacity="1" stop-color="rgb(0.418091%, 69.197083%, 79.188538%)" offset="0.265625"/><stop stop-opacity="1" stop-color="rgb(0.430298%, 68.946838%, 78.930664%)" offset="0.273438"/><stop stop-opacity="1" stop-color="rgb(0.442505%, 68.696594%, 78.674316%)" offset="0.28125"/><stop stop-opacity="1" stop-color="rgb(0.454712%, 68.444824%, 78.417969%)" offset="0.289062"/><stop stop-opacity="1" stop-color="rgb(0.468445%, 68.19458%, 78.160095%)" offset="0.296875"/><stop stop-opacity="1" stop-color="rgb(0.480652%, 67.944336%, 77.903748%)" offset="0.304688"/><stop stop-opacity="1" stop-color="rgb(0.492859%, 67.692566%, 77.645874%)" offset="0.3125"/><stop stop-opacity="1" stop-color="rgb(0.505066%, 67.442322%, 77.389526%)" offset="0.320312"/><stop stop-opacity="1" stop-color="rgb(0.517273%, 67.192078%, 77.131653%)" offset="0.328125"/><stop stop-opacity="1" stop-color="rgb(0.531006%, 66.940308%, 76.875305%)" offset="0.335938"/><stop stop-opacity="1" stop-color="rgb(0.543213%, 66.690063%, 76.617432%)" offset="0.34375"/><stop stop-opacity="1" stop-color="rgb(0.55542%, 66.439819%, 76.361084%)" offset="0.351562"/><stop stop-opacity="1" stop-color="rgb(0.567627%, 66.188049%, 76.104736%)" offset="0.359375"/><stop stop-opacity="1" stop-color="rgb(0.579834%, 65.937805%, 75.846863%)" offset="0.367188"/><stop stop-opacity="1" stop-color="rgb(0.593567%, 65.687561%, 75.590515%)" offset="0.375"/><stop stop-opacity="1" stop-color="rgb(0.605774%, 65.435791%, 75.332642%)" offset="0.382812"/><stop stop-opacity="1" stop-color="rgb(0.617981%, 65.185547%, 75.076294%)" offset="0.390625"/><stop stop-opacity="1" stop-color="rgb(0.630188%, 64.933777%, 74.81842%)" offset="0.398437"/><stop stop-opacity="1" stop-color="rgb(0.642395%, 64.683533%, 74.562073%)" offset="0.40625"/><stop stop-opacity="1" stop-color="rgb(0.654602%, 64.433289%, 74.304199%)" offset="0.414062"/><stop stop-opacity="1" stop-color="rgb(0.668335%, 64.181519%, 74.047852%)" offset="0.421875"/><stop stop-opacity="1" stop-color="rgb(0.680542%, 63.931274%, 73.789978%)" offset="0.429688"/><stop stop-opacity="1" stop-color="rgb(0.692749%, 63.68103%, 73.53363%)" offset="0.4375"/><stop stop-opacity="1" stop-color="rgb(0.704956%, 63.42926%, 73.277283%)" offset="0.445312"/><stop stop-opacity="1" stop-color="rgb(0.717163%, 63.179016%, 73.019409%)" offset="0.453125"/><stop stop-opacity="1" stop-color="rgb(0.730896%, 62.928772%, 72.763062%)" offset="0.460938"/><stop stop-opacity="1" stop-color="rgb(0.743103%, 62.677002%, 72.505188%)" offset="0.46875"/><stop stop-opacity="1" stop-color="rgb(0.75531%, 62.426758%, 72.24884%)" offset="0.476562"/><stop stop-opacity="1" stop-color="rgb(0.767517%, 62.176514%, 71.990967%)" offset="0.484375"/><stop stop-opacity="1" stop-color="rgb(0.779724%, 61.924744%, 71.734619%)" offset="0.492187"/><stop stop-opacity="1" stop-color="rgb(0.793457%, 61.6745%, 71.476746%)" offset="0.5"/><stop stop-opacity="1" stop-color="rgb(0.805664%, 61.424255%, 71.220398%)" offset="0.507812"/><stop stop-opacity="1" stop-color="rgb(0.817871%, 61.172485%, 70.96405%)" offset="0.515625"/><stop stop-opacity="1" stop-color="rgb(0.830078%, 60.922241%, 70.706177%)" offset="0.523438"/><stop stop-opacity="1" stop-color="rgb(0.842285%, 60.671997%, 70.449829%)" offset="0.53125"/><stop stop-opacity="1" stop-color="rgb(0.856018%, 60.420227%, 70.191956%)" offset="0.539063"/><stop stop-opacity="1" stop-color="rgb(0.868225%, 60.169983%, 69.935608%)" offset="0.546875"/><stop stop-opacity="1" stop-color="rgb(0.880432%, 59.918213%, 69.677734%)" offset="0.554688"/><stop stop-opacity="1" stop-color="rgb(0.892639%, 59.667969%, 69.421387%)" offset="0.5625"/><stop stop-opacity="1" stop-color="rgb(0.904846%, 59.417725%, 69.163513%)" offset="0.570312"/><stop stop-opacity="1" stop-color="rgb(0.918579%, 59.165955%, 68.907166%)" offset="0.578125"/><stop stop-opacity="1" stop-color="rgb(0.930786%, 58.91571%, 68.650818%)" offset="0.585938"/><stop stop-opacity="1" stop-color="rgb(0.942993%, 58.665466%, 68.392944%)" offset="0.59375"/><stop stop-opacity="1" stop-color="rgb(0.9552%, 58.413696%, 68.136597%)" offset="0.601562"/><stop stop-opacity="1" stop-color="rgb(0.967407%, 58.163452%, 67.878723%)" offset="0.609375"/><stop stop-opacity="1" stop-color="rgb(0.979614%, 57.913208%, 67.622375%)" offset="0.617188"/><stop stop-opacity="1" stop-color="rgb(0.993347%, 57.661438%, 67.364502%)" offset="0.625"/><stop stop-opacity="1" stop-color="rgb(1.005554%, 57.411194%, 67.108154%)" offset="0.632813"/><stop stop-opacity="1" stop-color="rgb(1.017761%, 57.16095%, 66.850281%)" offset="0.640625"/><stop stop-opacity="1" stop-color="rgb(1.029968%, 56.90918%, 66.593933%)" offset="0.648438"/><stop stop-opacity="1" stop-color="rgb(1.042175%, 56.658936%, 66.33606%)" offset="0.65625"/><stop stop-opacity="1" stop-color="rgb(1.055908%, 56.408691%, 66.079712%)" offset="0.664062"/><stop stop-opacity="1" stop-color="rgb(1.068115%, 56.156921%, 65.823364%)" offset="0.671875"/><stop stop-opacity="1" stop-color="rgb(1.080322%, 55.906677%, 65.565491%)" offset="0.679688"/><stop stop-opacity="1" stop-color="rgb(1.092529%, 55.654907%, 65.309143%)" offset="0.6875"/><stop stop-opacity="1" stop-color="rgb(1.104736%, 55.404663%, 65.05127%)" offset="0.695312"/><stop stop-opacity="1" stop-color="rgb(1.118469%, 55.154419%, 64.794922%)" offset="0.703125"/><stop stop-opacity="1" stop-color="rgb(1.130676%, 54.902649%, 64.537048%)" offset="0.710938"/><stop stop-opacity="1" stop-color="rgb(1.142883%, 54.652405%, 64.280701%)" offset="0.71875"/><stop stop-opacity="1" stop-color="rgb(1.15509%, 54.402161%, 64.022827%)" offset="0.726563"/><stop stop-opacity="1" stop-color="rgb(1.167297%, 54.150391%, 63.766479%)" offset="0.734375"/><stop stop-opacity="1" stop-color="rgb(1.18103%, 53.900146%, 63.510132%)" offset="0.742188"/><stop stop-opacity="1" stop-color="rgb(1.193237%, 53.649902%, 63.252258%)" offset="0.75"/><stop stop-opacity="1" stop-color="rgb(1.205444%, 53.398132%, 62.995911%)" offset="0.757812"/><stop stop-opacity="1" stop-color="rgb(1.217651%, 53.147888%, 62.738037%)" offset="0.765625"/><stop stop-opacity="1" stop-color="rgb(1.229858%, 52.897644%, 62.481689%)" offset="0.773438"/><stop stop-opacity="1" stop-color="rgb(1.243591%, 52.645874%, 62.223816%)" offset="0.78125"/><stop stop-opacity="1" stop-color="rgb(1.255798%, 52.39563%, 61.967468%)" offset="0.789062"/><stop stop-opacity="1" stop-color="rgb(1.268005%, 52.145386%, 61.709595%)" offset="0.796875"/><stop stop-opacity="1" stop-color="rgb(1.280212%, 51.893616%, 61.453247%)" offset="0.804688"/><stop stop-opacity="1" stop-color="rgb(1.292419%, 51.643372%, 61.196899%)" offset="0.8125"/><stop stop-opacity="1" stop-color="rgb(1.304626%, 51.391602%, 60.939026%)" offset="0.820312"/><stop stop-opacity="1" stop-color="rgb(1.318359%, 51.141357%, 60.682678%)" offset="0.828125"/><stop stop-opacity="1" stop-color="rgb(1.330566%, 50.891113%, 60.424805%)" offset="0.835938"/><stop stop-opacity="1" stop-color="rgb(1.342773%, 50.639343%, 60.168457%)" offset="0.84375"/><stop stop-opacity="1" stop-color="rgb(1.35498%, 50.389099%, 59.910583%)" offset="0.851562"/><stop stop-opacity="1" stop-color="rgb(1.367188%, 50.138855%, 59.654236%)" offset="0.859375"/><stop stop-opacity="1" stop-color="rgb(1.38092%, 49.887085%, 59.396362%)" offset="0.867188"/><stop stop-opacity="1" stop-color="rgb(1.393127%, 49.636841%, 59.140015%)" offset="0.875"/><stop stop-opacity="1" stop-color="rgb(1.405334%, 49.386597%, 58.882141%)" offset="0.882812"/><stop stop-opacity="1" stop-color="rgb(1.417542%, 49.134827%, 58.625793%)" offset="0.890625"/><stop stop-opacity="1" stop-color="rgb(1.429749%, 48.884583%, 58.369446%)" offset="0.898438"/><stop stop-opacity="1" stop-color="rgb(1.443481%, 48.634338%, 58.111572%)" offset="0.90625"/><stop stop-opacity="1" stop-color="rgb(1.455688%, 48.382568%, 57.855225%)" offset="0.914062"/><stop stop-opacity="1" stop-color="rgb(1.467896%, 48.132324%, 57.597351%)" offset="0.921875"/><stop stop-opacity="1" stop-color="rgb(1.480103%, 47.88208%, 57.341003%)" offset="0.929688"/><stop stop-opacity="1" stop-color="rgb(1.49231%, 47.63031%, 57.08313%)" offset="0.9375"/><stop stop-opacity="1" stop-color="rgb(1.506042%, 47.380066%, 56.826782%)" offset="0.945312"/><stop stop-opacity="1" stop-color="rgb(1.51825%, 47.128296%, 56.568909%)" offset="0.953125"/><stop stop-opacity="1" stop-color="rgb(1.530457%, 46.878052%, 56.312561%)" offset="0.960938"/><stop stop-opacity="1" stop-color="rgb(1.542664%, 46.627808%, 56.056213%)" offset="0.96875"/><stop stop-opacity="1" stop-color="rgb(1.554871%, 46.376038%, 55.79834%)" offset="0.976562"/><stop stop-opacity="1" stop-color="rgb(1.567078%, 46.125793%, 55.541992%)" offset="0.984375"/><stop stop-opacity="1" stop-color="rgb(1.580811%, 45.875549%, 55.284119%)" offset="0.992188"/><stop stop-opacity="1" stop-color="rgb(1.593018%, 45.623779%, 55.027771%)" offset="1"/></linearGradient></defs><g clip-path="url(#dd9a00d7d4)"><g clip-path="url(#d8d3016107)"><path fill="url(#527b9e1afe)" d="M 5.109375 24.328125 L 5.109375 350.578125 L 369.882812 350.578125 L 369.882812 24.328125 Z M 5.109375 24.328125 " fill-rule="nonzero"/></g></g></svg>